%TF.GenerationSoftware,KiCad,Pcbnew,(6.0.7)*%
%TF.CreationDate,2023-04-13T09:30:39-06:00*%
%TF.ProjectId,TTW,5454572e-6b69-4636-9164-5f7063625858,rev?*%
%TF.SameCoordinates,Original*%
%TF.FileFunction,Copper,L1,Top*%
%TF.FilePolarity,Positive*%
%FSLAX46Y46*%
G04 Gerber Fmt 4.6, Leading zero omitted, Abs format (unit mm)*
G04 Created by KiCad (PCBNEW (6.0.7)) date 2023-04-13 09:30:39*
%MOMM*%
%LPD*%
G01*
G04 APERTURE LIST*
%TA.AperFunction,NonConductor*%
%ADD10C,0.200000*%
%TD*%
G04 APERTURE END LIST*
D10*
G36*
X94500000Y-105000000D02*
G01*
X94500000Y-106000000D01*
X92000000Y-103500000D01*
X92000000Y-102500000D01*
X94500000Y-105000000D01*
G37*
X94500000Y-105000000D02*
X94500000Y-106000000D01*
X92000000Y-103500000D01*
X92000000Y-102500000D01*
X94500000Y-105000000D01*
G36*
X106000000Y-117000000D02*
G01*
X101000000Y-122000000D01*
X95000000Y-122000000D01*
X92000000Y-125000000D01*
X92000000Y-118000000D01*
X98500000Y-118000000D01*
X102000000Y-114500000D01*
X106000000Y-114500000D01*
X106000000Y-117000000D01*
G37*
X106000000Y-117000000D02*
X101000000Y-122000000D01*
X95000000Y-122000000D01*
X92000000Y-125000000D01*
X92000000Y-118000000D01*
X98500000Y-118000000D01*
X102000000Y-114500000D01*
X106000000Y-114500000D01*
X106000000Y-117000000D01*
G36*
X97000000Y-105000000D02*
G01*
X97000000Y-109500000D01*
X93000000Y-109500000D01*
X93000000Y-108000000D01*
X92000000Y-107000000D01*
X92000000Y-100000000D01*
X97000000Y-105000000D01*
G37*
X97000000Y-105000000D02*
X97000000Y-109500000D01*
X93000000Y-109500000D01*
X93000000Y-108000000D01*
X92000000Y-107000000D01*
X92000000Y-100000000D01*
X97000000Y-105000000D01*
X102000000Y-109500000D02*
X106000000Y-109500000D01*
X106000000Y-109500000D02*
X106000000Y-114500000D01*
X106000000Y-114500000D02*
X102000000Y-114500000D01*
X102000000Y-114500000D02*
X102000000Y-109500000D01*
G36*
X102000000Y-109500000D02*
G01*
X106000000Y-109500000D01*
X106000000Y-114500000D01*
X102000000Y-114500000D01*
X102000000Y-109500000D01*
G37*
X85000000Y-100000000D02*
X92000000Y-100000000D01*
X92000000Y-100000000D02*
X92000000Y-107000000D01*
X92000000Y-107000000D02*
X85000000Y-107000000D01*
X85000000Y-107000000D02*
X85000000Y-100000000D01*
G36*
X85000000Y-100000000D02*
G01*
X92000000Y-100000000D01*
X92000000Y-107000000D01*
X85000000Y-107000000D01*
X85000000Y-100000000D01*
G37*
X93000000Y-109500000D02*
X97000000Y-109500000D01*
X97000000Y-109500000D02*
X97000000Y-114500000D01*
X97000000Y-114500000D02*
X93000000Y-114500000D01*
X93000000Y-114500000D02*
X93000000Y-109500000D01*
G36*
X93000000Y-109500000D02*
G01*
X97000000Y-109500000D01*
X97000000Y-114500000D01*
X93000000Y-114500000D01*
X93000000Y-109500000D01*
G37*
X85000000Y-118000000D02*
X92000000Y-118000000D01*
X92000000Y-118000000D02*
X92000000Y-125000000D01*
X92000000Y-125000000D02*
X85000000Y-125000000D01*
X85000000Y-125000000D02*
X85000000Y-118000000D01*
G36*
X85000000Y-118000000D02*
G01*
X92000000Y-118000000D01*
X92000000Y-125000000D01*
X85000000Y-125000000D01*
X85000000Y-118000000D01*
G37*
M02*
