%TF.GenerationSoftware,KiCad,Pcbnew,(6.0.7)*%
%TF.CreationDate,2023-04-13T09:30:39-06:00*%
%TF.ProjectId,TTW,5454572e-6b69-4636-9164-5f7063625858,rev?*%
%TF.SameCoordinates,Original*%
%TF.FileFunction,Profile,NP*%
%FSLAX46Y46*%
G04 Gerber Fmt 4.6, Leading zero omitted, Abs format (unit mm)*
G04 Created by KiCad (PCBNEW (6.0.7)) date 2023-04-13 09:30:39*
%MOMM*%
%LPD*%
G01*
G04 APERTURE LIST*
%TA.AperFunction,Profile*%
%ADD10C,2.050000*%
%TD*%
%TA.AperFunction,Profile*%
%ADD11C,0.550000*%
%TD*%
%TA.AperFunction,Profile*%
%ADD12C,0.100000*%
%TD*%
G04 APERTURE END LIST*
D10*
X96025000Y-137000000D02*
G75*
G03*
X96025000Y-137000000I-1025000J0D01*
G01*
X96025000Y-127000000D02*
G75*
G03*
X96025000Y-127000000I-1025000J0D01*
G01*
D11*
X80275000Y-111000000D02*
G75*
G03*
X80275000Y-111000000I-275000J0D01*
G01*
X77275000Y-90000000D02*
G75*
G03*
X77275000Y-90000000I-275000J0D01*
G01*
X77275000Y-126000000D02*
G75*
G03*
X77275000Y-126000000I-275000J0D01*
G01*
X80275000Y-123000000D02*
G75*
G03*
X80275000Y-123000000I-275000J0D01*
G01*
X80275000Y-108000000D02*
G75*
G03*
X80275000Y-108000000I-275000J0D01*
G01*
X77275000Y-114000000D02*
G75*
G03*
X77275000Y-114000000I-275000J0D01*
G01*
D10*
X105025000Y-127000000D02*
G75*
G03*
X105025000Y-127000000I-1025000J0D01*
G01*
D11*
X80275000Y-135000000D02*
G75*
G03*
X80275000Y-135000000I-275000J0D01*
G01*
D12*
X105000000Y-140000000D02*
X77000000Y-140000000D01*
D11*
X80275000Y-90000000D02*
G75*
G03*
X80275000Y-90000000I-275000J0D01*
G01*
D12*
X77000000Y-85000000D02*
X105000000Y-85000000D01*
D11*
X80275000Y-138000000D02*
G75*
G03*
X80275000Y-138000000I-275000J0D01*
G01*
X80275000Y-87000000D02*
G75*
G03*
X80275000Y-87000000I-275000J0D01*
G01*
X77275000Y-99000000D02*
G75*
G03*
X77275000Y-99000000I-275000J0D01*
G01*
X77275000Y-138000000D02*
G75*
G03*
X77275000Y-138000000I-275000J0D01*
G01*
D10*
X96025000Y-98000000D02*
G75*
G03*
X96025000Y-98000000I-1025000J0D01*
G01*
D11*
X77275000Y-108000000D02*
G75*
G03*
X77275000Y-108000000I-275000J0D01*
G01*
X80275000Y-99000000D02*
G75*
G03*
X80275000Y-99000000I-275000J0D01*
G01*
X74275000Y-126000000D02*
G75*
G03*
X74275000Y-126000000I-275000J0D01*
G01*
D10*
X105025000Y-88000000D02*
G75*
G03*
X105025000Y-88000000I-1025000J0D01*
G01*
D11*
X74275000Y-120000000D02*
G75*
G03*
X74275000Y-120000000I-275000J0D01*
G01*
X80275000Y-114000000D02*
G75*
G03*
X80275000Y-114000000I-275000J0D01*
G01*
X80275000Y-102000000D02*
G75*
G03*
X80275000Y-102000000I-275000J0D01*
G01*
X74275000Y-105000000D02*
G75*
G03*
X74275000Y-105000000I-275000J0D01*
G01*
X77275000Y-105000000D02*
G75*
G03*
X77275000Y-105000000I-275000J0D01*
G01*
X74275000Y-108000000D02*
G75*
G03*
X74275000Y-108000000I-275000J0D01*
G01*
D12*
X105000000Y-140000000D02*
G75*
G03*
X110000000Y-135000000I0J5000000D01*
G01*
D11*
X74275000Y-132000000D02*
G75*
G03*
X74275000Y-132000000I-275000J0D01*
G01*
X77275000Y-132000000D02*
G75*
G03*
X77275000Y-132000000I-275000J0D01*
G01*
X74275000Y-102000000D02*
G75*
G03*
X74275000Y-102000000I-275000J0D01*
G01*
X80275000Y-120000000D02*
G75*
G03*
X80275000Y-120000000I-275000J0D01*
G01*
X74275000Y-135000000D02*
G75*
G03*
X74275000Y-135000000I-275000J0D01*
G01*
D10*
X105025000Y-137000000D02*
G75*
G03*
X105025000Y-137000000I-1025000J0D01*
G01*
D11*
X77275000Y-87000000D02*
G75*
G03*
X77275000Y-87000000I-275000J0D01*
G01*
X80275000Y-105000000D02*
G75*
G03*
X80275000Y-105000000I-275000J0D01*
G01*
X77275000Y-93000000D02*
G75*
G03*
X77275000Y-93000000I-275000J0D01*
G01*
X77275000Y-120000000D02*
G75*
G03*
X77275000Y-120000000I-275000J0D01*
G01*
X74275000Y-93000000D02*
G75*
G03*
X74275000Y-93000000I-275000J0D01*
G01*
X80275000Y-126000000D02*
G75*
G03*
X80275000Y-126000000I-275000J0D01*
G01*
X74275000Y-129000000D02*
G75*
G03*
X74275000Y-129000000I-275000J0D01*
G01*
X77275000Y-129000000D02*
G75*
G03*
X77275000Y-129000000I-275000J0D01*
G01*
X74275000Y-123000000D02*
G75*
G03*
X74275000Y-123000000I-275000J0D01*
G01*
D12*
X77000000Y-85000000D02*
G75*
G03*
X72000000Y-90000000I0J-5000000D01*
G01*
D11*
X74275000Y-114000000D02*
G75*
G03*
X74275000Y-114000000I-275000J0D01*
G01*
X74275000Y-90000000D02*
G75*
G03*
X74275000Y-90000000I-275000J0D01*
G01*
X77275000Y-123000000D02*
G75*
G03*
X77275000Y-123000000I-275000J0D01*
G01*
X77275000Y-135000000D02*
G75*
G03*
X77275000Y-135000000I-275000J0D01*
G01*
D12*
X72000000Y-135000000D02*
X72000000Y-90000000D01*
D11*
X77275000Y-117000000D02*
G75*
G03*
X77275000Y-117000000I-275000J0D01*
G01*
D12*
X110000000Y-90000000D02*
G75*
G03*
X105000000Y-85000000I-5000000J0D01*
G01*
D11*
X80275000Y-93000000D02*
G75*
G03*
X80275000Y-93000000I-275000J0D01*
G01*
X80275000Y-117000000D02*
G75*
G03*
X80275000Y-117000000I-275000J0D01*
G01*
D10*
X105025000Y-98000000D02*
G75*
G03*
X105025000Y-98000000I-1025000J0D01*
G01*
D11*
X74275000Y-117000000D02*
G75*
G03*
X74275000Y-117000000I-275000J0D01*
G01*
X74275000Y-96000000D02*
G75*
G03*
X74275000Y-96000000I-275000J0D01*
G01*
X80275000Y-132000000D02*
G75*
G03*
X80275000Y-132000000I-275000J0D01*
G01*
X77275000Y-111000000D02*
G75*
G03*
X77275000Y-111000000I-275000J0D01*
G01*
X74275000Y-99000000D02*
G75*
G03*
X74275000Y-99000000I-275000J0D01*
G01*
X74275000Y-111000000D02*
G75*
G03*
X74275000Y-111000000I-275000J0D01*
G01*
D12*
X72000000Y-135000000D02*
G75*
G03*
X77000000Y-140000000I5000000J0D01*
G01*
D11*
X80275000Y-96000000D02*
G75*
G03*
X80275000Y-96000000I-275000J0D01*
G01*
D10*
X96025000Y-88000000D02*
G75*
G03*
X96025000Y-88000000I-1025000J0D01*
G01*
D12*
X110000000Y-90000000D02*
X110000000Y-135000000D01*
D11*
X80275000Y-129000000D02*
G75*
G03*
X80275000Y-129000000I-275000J0D01*
G01*
X77275000Y-96000000D02*
G75*
G03*
X77275000Y-96000000I-275000J0D01*
G01*
X77275000Y-102000000D02*
G75*
G03*
X77275000Y-102000000I-275000J0D01*
G01*
M02*
