%TF.GenerationSoftware,KiCad,Pcbnew,(6.0.7)*%
%TF.CreationDate,2023-04-13T09:30:39-06:00*%
%TF.ProjectId,TTW,5454572e-6b69-4636-9164-5f7063625858,rev?*%
%TF.SameCoordinates,Original*%
%TF.FileFunction,Legend,Top*%
%TF.FilePolarity,Positive*%
%FSLAX46Y46*%
G04 Gerber Fmt 4.6, Leading zero omitted, Abs format (unit mm)*
G04 Created by KiCad (PCBNEW (6.0.7)) date 2023-04-13 09:30:39*
%MOMM*%
%LPD*%
G01*
G04 APERTURE LIST*
%ADD10C,0.150000*%
G04 APERTURE END LIST*
D10*
G36*
X95500000Y-109000000D02*
G01*
X94500000Y-109000000D01*
X94500000Y-106000000D01*
X95500000Y-106000000D01*
X95500000Y-109000000D01*
G37*
X95500000Y-109000000D02*
X94500000Y-109000000D01*
X94500000Y-106000000D01*
X95500000Y-106000000D01*
X95500000Y-109000000D01*
G36*
X95500000Y-106000000D02*
G01*
X94500000Y-106000000D01*
X92500000Y-104000000D01*
X92500000Y-103000000D01*
X95500000Y-106000000D01*
G37*
X95500000Y-106000000D02*
X94500000Y-106000000D01*
X92500000Y-104000000D01*
X92500000Y-103000000D01*
X95500000Y-106000000D01*
G36*
X104500000Y-115500000D02*
G01*
X103500000Y-115500000D01*
X103500000Y-115000000D01*
X104500000Y-115000000D01*
X104500000Y-115500000D01*
G37*
X104500000Y-115500000D02*
X103500000Y-115500000D01*
X103500000Y-115000000D01*
X104500000Y-115000000D01*
X104500000Y-115500000D01*
G36*
X99500000Y-120500000D02*
G01*
X99500000Y-119500000D01*
X103500000Y-115500000D01*
X104500000Y-115500000D01*
X99500000Y-120500000D01*
G37*
X99500000Y-120500000D02*
X99500000Y-119500000D01*
X103500000Y-115500000D01*
X104500000Y-115500000D01*
X99500000Y-120500000D01*
G36*
X99500000Y-120500000D02*
G01*
X92500000Y-120500000D01*
X92500000Y-119500000D01*
X99500000Y-119500000D01*
X99500000Y-120500000D01*
G37*
X99500000Y-120500000D02*
X92500000Y-120500000D01*
X92500000Y-119500000D01*
X99500000Y-119500000D01*
X99500000Y-120500000D01*
X89913744Y-110920066D02*
X89913744Y-110541045D01*
X88167544Y-111545266D02*
X88167544Y-113189876D01*
X89675644Y-110399066D02*
X89675644Y-111013552D01*
X85627544Y-109970666D02*
X85627544Y-108248846D01*
X70240444Y-121568366D02*
X70505044Y-121568366D01*
X86228744Y-108343666D02*
X86082678Y-108268947D01*
X85145194Y-115262564D02*
X85070694Y-115394390D01*
X87294344Y-108979166D02*
X87294344Y-115756446D01*
X85013344Y-115670696D02*
X85013344Y-115670696D01*
X92011790Y-112240006D02*
X91989174Y-112114181D01*
X85936744Y-108229034D02*
X85793345Y-108220839D01*
X88474294Y-113165218D02*
X88712238Y-113171251D01*
X89516844Y-113668006D02*
X89516844Y-114431134D01*
X87770644Y-114481066D02*
X87770644Y-115472426D01*
X90035924Y-112840517D02*
X90024444Y-112783646D01*
X88485044Y-111271466D02*
X88485044Y-109689116D01*
X88564344Y-109736366D02*
X88564344Y-111271786D01*
X86659344Y-108600466D02*
X86659344Y-116135026D01*
X91747937Y-113066358D02*
X91830862Y-112967742D01*
X90366074Y-111826336D02*
X90766094Y-112226366D01*
X87840488Y-110268400D02*
X87884707Y-110303835D01*
X87453144Y-109073766D02*
X87453144Y-115661716D01*
X89182953Y-113242867D02*
X89413556Y-113305512D01*
X89596244Y-111045866D02*
X89596244Y-110351657D01*
X87929344Y-113254196D02*
X87929344Y-111481316D01*
X89040644Y-113511696D02*
X89040644Y-114715126D01*
X88088144Y-113202666D02*
X88088144Y-111531816D01*
X90310634Y-113602636D02*
X90310634Y-112950813D01*
X85706844Y-113565996D02*
X85706844Y-111169556D01*
X91143462Y-113437528D02*
X91344239Y-113338847D01*
X88992381Y-111530795D02*
X88756600Y-111561521D01*
X88144544Y-113500236D02*
X87910744Y-114372536D01*
X87879744Y-113328926D02*
X87923344Y-113257156D01*
X90724025Y-113575176D02*
X90936174Y-113517905D01*
X88246844Y-113179896D02*
X88246844Y-111555736D01*
X85145172Y-109473167D02*
X85253444Y-109596466D01*
X88989144Y-111226828D02*
X89399678Y-111117774D01*
X87929344Y-109357766D02*
X87929344Y-110432666D01*
X85025846Y-108926806D02*
X85013421Y-109065199D01*
X88008744Y-110728866D02*
X88008744Y-109405136D01*
X89913744Y-114194486D02*
X89913744Y-113812946D01*
X88405644Y-113472266D02*
X88405644Y-115093776D01*
X91898710Y-111876134D02*
X91830862Y-111767799D01*
X91989174Y-112621365D02*
X92011790Y-112495541D01*
X87728044Y-110260716D02*
X87785721Y-110254711D01*
X90058548Y-111854918D02*
X90098693Y-111813574D01*
X86500644Y-108505866D02*
X86500644Y-116229756D01*
X91104384Y-111280966D02*
X91104384Y-113454316D01*
X89225589Y-111481590D02*
X88992381Y-111530795D01*
X87373744Y-115709076D02*
X87373744Y-109026466D01*
X88712238Y-113171251D02*
X88948819Y-113197623D01*
X89301115Y-113588595D02*
X89083313Y-113522118D01*
X90707514Y-112567776D02*
X90707514Y-113578296D01*
X89120044Y-111198366D02*
X89120044Y-110067706D01*
X90469384Y-112805906D02*
X90469384Y-113606294D01*
X85865644Y-108221266D02*
X85865644Y-110208756D01*
X87998644Y-111515466D02*
X87923344Y-111478366D01*
X85151244Y-108614466D02*
X85151244Y-109481386D01*
X85070694Y-115394390D02*
X85027544Y-115531456D01*
X88961244Y-111231866D02*
X88961244Y-109973016D01*
X89278744Y-111467866D02*
X89278744Y-113266896D01*
X90231264Y-110842066D02*
X90231264Y-110730386D01*
X90393564Y-110827166D02*
X86228744Y-108343666D01*
X85656563Y-111345552D02*
X85599559Y-111597430D01*
X88088144Y-109452466D02*
X88088144Y-111025036D01*
X90317525Y-111788800D02*
X90366074Y-111826336D01*
X85534412Y-112625949D02*
X85558842Y-112883077D01*
X89859844Y-113477136D02*
X90074926Y-113560321D01*
X90393564Y-113908376D02*
X90166803Y-113879737D01*
X91830862Y-112967742D02*
X91898710Y-112859409D01*
X91344239Y-113338847D02*
X91536854Y-113226666D01*
X90231264Y-113891136D02*
X90231264Y-114005161D01*
X88326244Y-115141106D02*
X88326244Y-113478286D01*
X88144544Y-111235266D02*
X88356989Y-111264788D01*
X85945044Y-110288166D02*
X85945044Y-108230646D01*
X90628134Y-112647156D02*
X90628134Y-113591869D01*
X90310634Y-110832366D02*
X90310634Y-110777665D01*
X91025014Y-113486116D02*
X91025014Y-111249326D01*
X90210765Y-112966812D02*
X90155659Y-112953707D01*
X90262368Y-111770472D02*
X90317525Y-111788800D01*
X87879744Y-111406566D02*
X87620944Y-110440666D01*
X91156569Y-111303560D02*
X90953630Y-111223468D01*
X89040644Y-113213276D02*
X89040644Y-111522016D01*
X90108874Y-111166818D02*
X89900644Y-111242866D01*
X88948819Y-113197623D02*
X89182953Y-113242867D01*
X85925294Y-114116178D02*
X86047444Y-114344936D01*
X88643744Y-114951776D02*
X88643744Y-113467156D01*
X85198506Y-108547628D02*
X85120793Y-108664935D01*
X86024344Y-108249366D02*
X86024344Y-110367566D01*
X88246844Y-113486696D02*
X88246844Y-115188436D01*
X88042944Y-111523066D02*
X87998644Y-111515466D01*
X89639548Y-113384092D02*
X89859844Y-113477136D01*
X104000000Y-129500000D02*
X104000000Y-134500000D01*
X89437544Y-111104466D02*
X89437544Y-110257020D01*
X85865644Y-113988256D02*
X85865644Y-110747296D01*
X85865644Y-114526786D02*
X85865644Y-116513776D01*
X85027544Y-115531456D02*
X85013344Y-115670696D01*
X88723144Y-109831066D02*
X88723144Y-111263866D01*
X89278744Y-111155766D02*
X89278744Y-110162345D01*
X90155659Y-112953707D02*
X90105503Y-112927193D01*
X90945634Y-111220866D02*
X90945634Y-113514626D01*
X91977514Y-112664796D02*
X91977514Y-112070766D01*
X90319944Y-112946212D02*
X90266851Y-112964862D01*
X88961244Y-114762456D02*
X88961244Y-113494706D01*
X90089073Y-110869628D02*
X90240151Y-110840677D01*
X91951481Y-112743302D02*
X91989174Y-112621365D01*
X90072544Y-113858406D02*
X90072544Y-114099820D01*
X85548144Y-108276766D02*
X85548144Y-109891206D01*
X90310634Y-113901586D02*
X90310634Y-113957826D01*
X92011790Y-112495541D02*
X92019329Y-112367773D01*
X85293176Y-108443523D02*
X85198506Y-108547628D01*
X88860271Y-113478348D02*
X88629644Y-113467376D01*
X90533368Y-111132686D02*
X90320529Y-111131710D01*
X89993144Y-113533686D02*
X89993144Y-111203756D01*
X91739384Y-111660716D02*
X91739384Y-113074846D01*
X85688423Y-116501461D02*
X85792899Y-116514273D01*
X87850044Y-115425086D02*
X87850044Y-114461954D01*
X88280968Y-111559632D02*
X88042944Y-111523066D01*
X90064267Y-112888914D02*
X90035924Y-112840517D01*
X88485044Y-111571286D02*
X88485044Y-113165136D01*
X85627544Y-116486486D02*
X85627544Y-114764926D01*
X90098693Y-111813574D02*
X90148808Y-111784575D01*
X85786244Y-110939966D02*
X85786244Y-113795656D01*
X86897544Y-115993066D02*
X86897544Y-108742486D01*
X88167544Y-115235766D02*
X88167544Y-113497026D01*
X85310044Y-108428266D02*
X85310044Y-109653116D01*
X86976844Y-108789766D02*
X86976844Y-115945686D01*
X85548144Y-112789436D02*
X85548144Y-111946123D01*
X88881844Y-113481516D02*
X88881844Y-114809786D01*
X85013344Y-115670696D02*
X85041111Y-115876906D01*
X88723144Y-113172126D02*
X88723144Y-111564096D01*
X85230644Y-108508866D02*
X85230644Y-109574116D01*
X87884707Y-110303835D02*
X87910744Y-110363066D01*
X89358144Y-110209666D02*
X89358144Y-111131293D01*
X87691244Y-115519756D02*
X87691244Y-114460516D01*
X89755044Y-114289146D02*
X89755044Y-113758125D01*
X90548764Y-112726526D02*
X90548764Y-113601226D01*
X87675092Y-114451185D02*
X87634500Y-114411943D01*
X88236068Y-113180994D02*
X88474294Y-113165218D01*
X85401931Y-116379562D02*
X85587763Y-116473874D01*
X85786244Y-110129366D02*
X85786244Y-108221346D01*
X91421884Y-111439766D02*
X91421884Y-113295516D01*
X82500000Y-86000000D02*
X82500000Y-139500000D01*
X85792899Y-116514273D02*
X85900179Y-116511014D01*
X90072544Y-110873866D02*
X90072544Y-110635643D01*
X87634500Y-110323607D02*
X87675092Y-110284365D01*
X88802544Y-114857116D02*
X88802544Y-113472066D01*
X90072544Y-113559576D02*
X90072544Y-112898358D01*
X90508667Y-113604538D02*
X90724025Y-113575176D01*
X85310044Y-116307336D02*
X85310044Y-115082456D01*
X86103744Y-116457606D02*
X86103744Y-108277786D01*
X88564344Y-113466776D02*
X88564344Y-114999106D01*
X90266851Y-112964862D02*
X90210765Y-112966812D01*
X90953630Y-111223468D02*
X90745149Y-111164891D01*
X91951481Y-111992243D02*
X91898710Y-111876134D01*
X85253444Y-109596466D02*
X86047444Y-110390566D01*
X89120044Y-114667796D02*
X89120044Y-113532076D01*
X90786884Y-112276516D02*
X90786884Y-111174726D01*
X91747937Y-111669180D02*
X91649934Y-111582222D01*
X89199344Y-113555256D02*
X89199344Y-114620456D01*
X87850044Y-110273566D02*
X87850044Y-109310413D01*
X90204747Y-111769635D02*
X90262368Y-111770472D01*
X85120521Y-116070703D02*
X85243489Y-116241714D01*
X87884707Y-114431737D02*
X87840488Y-114467155D01*
X95000000Y-95500000D02*
X95000000Y-90500000D01*
X90390014Y-110827266D02*
X90390014Y-110824985D01*
X87923344Y-111478366D02*
X87879744Y-111406566D01*
X90231264Y-113593656D02*
X90231264Y-112967812D01*
X91649934Y-113153314D02*
X91747937Y-113066358D01*
X90032517Y-111906891D02*
X90058548Y-111854918D01*
X85819430Y-113880066D02*
X85925294Y-114116178D01*
X70293344Y-121488991D02*
X70452144Y-121647741D01*
X85243489Y-116241714D02*
X85401931Y-116379562D01*
X89278744Y-114573136D02*
X89278744Y-113581073D01*
X85706844Y-108230566D02*
X85706844Y-110050026D01*
X88008744Y-115330426D02*
X88008744Y-114006796D01*
X87910744Y-110363066D02*
X88144544Y-111235266D01*
X89834344Y-110493666D02*
X89834344Y-110947617D01*
X85945044Y-116504566D02*
X85945044Y-114447406D01*
X91501264Y-113248526D02*
X91501264Y-111486866D01*
X85468744Y-116420536D02*
X85468744Y-114923686D01*
X90024444Y-112783646D02*
X90024744Y-112767776D01*
X90166803Y-113879737D02*
X89946521Y-113823348D01*
X88356989Y-111264788D02*
X88569010Y-111271777D01*
X89120044Y-111506066D02*
X89120044Y-113228956D01*
X89755044Y-110979466D02*
X89755044Y-110446317D01*
X88643744Y-111569016D02*
X88643744Y-113167446D01*
X87691244Y-110703066D02*
X87691244Y-114032536D01*
X85062438Y-108792356D02*
X85025846Y-108926806D01*
X89437544Y-111421466D02*
X89437544Y-113313176D01*
X92019329Y-112367773D02*
X92011790Y-112240006D01*
X90628134Y-112088406D02*
X90628134Y-111143658D01*
X85468744Y-108315066D02*
X85468744Y-109811846D01*
X85534412Y-112109590D02*
X85526269Y-112367770D01*
X91263134Y-111354166D02*
X91263134Y-113380906D01*
X89900644Y-111242866D02*
X89455311Y-111415883D01*
X90366074Y-112909216D02*
X90319944Y-112946212D01*
X86421244Y-116277046D02*
X86421244Y-108458496D01*
X87613906Y-114359155D02*
X87620944Y-114294866D01*
X85786244Y-116513836D02*
X85786244Y-114606166D01*
X85558842Y-111852460D02*
X85534412Y-112109590D01*
X85526269Y-112367770D02*
X85534412Y-112625949D01*
X88802544Y-111556966D02*
X88802544Y-113179116D01*
X87056244Y-115898396D02*
X87056244Y-108837136D01*
X85013421Y-109065199D02*
X85027564Y-109204447D01*
X87532544Y-115614416D02*
X87532544Y-109121126D01*
X88569010Y-111271777D02*
X88779947Y-111258401D01*
X91649934Y-111582222D02*
X91536854Y-111508866D01*
X85627544Y-111464666D02*
X85627544Y-113270966D01*
X70478544Y-121356700D02*
X70584377Y-121462533D01*
X89199344Y-110115066D02*
X89199344Y-111178286D01*
X86818144Y-108695166D02*
X86818144Y-116040406D01*
X89675644Y-113728626D02*
X89675644Y-114336474D01*
X91183764Y-113419196D02*
X91183764Y-111316076D01*
X85925294Y-110619332D02*
X85819430Y-110855453D01*
X88088144Y-113710696D02*
X88088144Y-115283096D01*
X87910744Y-114372536D02*
X87884707Y-114431737D01*
X90024744Y-111967776D02*
X90032517Y-111906891D01*
X90390014Y-111128566D02*
X90390014Y-111850306D01*
X85587763Y-116473874D02*
X85688423Y-116501461D01*
X89755044Y-111305766D02*
X89755044Y-113430866D01*
X85793345Y-108220839D02*
X85654886Y-108241277D01*
X90390014Y-113908126D02*
X90390014Y-113910492D01*
X90866264Y-113539516D02*
X90866264Y-111196036D01*
X90469384Y-111929656D02*
X90469384Y-111129070D01*
X85706844Y-114685546D02*
X85706844Y-116504776D01*
X88802544Y-111255766D02*
X88802544Y-109878446D01*
X88643744Y-111269166D02*
X88643744Y-109783766D01*
X90786884Y-112459016D02*
X90786884Y-113560876D01*
X85558842Y-112883077D02*
X85599559Y-113138104D01*
X89946521Y-113823348D02*
X89516021Y-113667686D01*
X86047444Y-110390566D02*
X85925294Y-110619332D01*
X85599559Y-113138104D02*
X85656563Y-113389978D01*
X89358144Y-113288846D02*
X89358144Y-111445586D01*
X88405644Y-109641766D02*
X88405644Y-111268306D01*
X89516844Y-110304366D02*
X89516844Y-111076140D01*
X85729853Y-113637648D02*
X85819430Y-113880066D01*
X86262544Y-116371716D02*
X86262544Y-108363846D01*
X87770644Y-109263066D02*
X87770644Y-110254445D01*
X85071844Y-115968416D02*
X85071844Y-115391842D01*
X87770644Y-113736236D02*
X87770644Y-110999276D01*
X90151884Y-113579136D02*
X90151884Y-112952153D01*
X89993144Y-113837136D02*
X89993144Y-114147154D01*
X88881844Y-113188226D02*
X88881844Y-111547576D01*
X70372744Y-121462533D02*
X70478577Y-121568366D01*
X90240151Y-110840677D02*
X90393564Y-110827166D01*
X88881844Y-109925766D02*
X88881844Y-111245206D01*
X88485044Y-115046446D02*
X88485044Y-113468396D01*
X90548764Y-112009026D02*
X90548764Y-111134236D01*
X87785721Y-110254711D02*
X87840488Y-110268400D01*
X85230644Y-116226746D02*
X85230644Y-115161516D01*
X90310634Y-111132666D02*
X90310634Y-111785511D01*
X85523769Y-108287261D02*
X85402398Y-108355705D01*
X87850044Y-111295566D02*
X87850044Y-113440016D01*
X88167544Y-111239466D02*
X88167544Y-109499756D01*
X85729853Y-111097876D02*
X85656563Y-111345552D01*
X85253444Y-115139046D02*
X85145194Y-115262564D01*
X89413556Y-113305512D02*
X89639548Y-113384092D01*
X85402398Y-108355705D02*
X85293176Y-108443523D01*
X88008744Y-111517266D02*
X88008744Y-113218046D01*
X86183144Y-108316566D02*
X86183144Y-116418876D01*
X88386381Y-113473411D02*
X88144544Y-113500236D01*
X85900179Y-116511014D02*
X86009254Y-116490385D01*
X88564344Y-113165186D02*
X88564344Y-111571376D01*
X90072544Y-111177166D02*
X90072544Y-111837851D01*
X88723144Y-113467476D02*
X88723144Y-114904446D01*
X89199344Y-113246846D02*
X89199344Y-111487866D01*
X87620944Y-110440666D02*
X87613906Y-110376391D01*
X90936174Y-113517905D02*
X91143462Y-113437528D01*
X91830862Y-111767799D02*
X91747937Y-111669180D01*
X87728044Y-114474832D02*
X87675092Y-114451185D01*
X90824704Y-112367746D02*
X90766094Y-112509186D01*
X88326244Y-111261866D02*
X88326244Y-109594456D01*
X90105503Y-112927193D02*
X90064267Y-112888914D01*
X88246844Y-109547066D02*
X88246844Y-111252406D01*
X88756600Y-111561521D02*
X88519158Y-111571792D01*
X89083313Y-113522118D02*
X88860271Y-113478348D01*
X87613906Y-110376391D02*
X87634500Y-110323607D01*
X86119112Y-116451092D02*
X86228744Y-116391836D01*
X89675644Y-113398326D02*
X89675644Y-111337546D01*
X91536854Y-111508866D02*
X91351724Y-111400311D01*
X91351724Y-111400311D02*
X91156569Y-111303560D01*
X89516021Y-113667686D02*
X89301115Y-113588595D01*
X90148808Y-111784575D02*
X90204747Y-111769635D01*
X87215044Y-115803736D02*
X87215044Y-108931796D01*
X89834344Y-113465666D02*
X89834344Y-111271866D01*
X86024344Y-114304306D02*
X86024344Y-110431246D01*
X88779947Y-111258401D02*
X88989144Y-111226828D01*
X85151244Y-116121566D02*
X85151244Y-115254449D01*
X91818764Y-112983796D02*
X91818764Y-111751746D01*
X89399678Y-111117774D02*
X89795344Y-110961966D01*
X89795344Y-110961966D02*
X90089073Y-110869628D01*
X104000000Y-95500000D02*
X104000000Y-90500000D01*
X91580634Y-111534666D02*
X91580634Y-113200966D01*
X85070680Y-109341465D02*
X85145172Y-109473167D01*
X85027564Y-109204447D02*
X85070680Y-109341465D01*
X87675092Y-110284365D02*
X87728044Y-110260716D01*
X86738744Y-116087726D02*
X86738744Y-108647826D01*
X85819430Y-110855453D02*
X85729853Y-111097876D01*
X90074926Y-113560321D02*
X90291750Y-113601187D01*
X89913744Y-111236966D02*
X89913744Y-113502296D01*
X90707514Y-112167776D02*
X90707514Y-111157256D01*
X87634500Y-114411943D02*
X87613906Y-114359155D01*
X91989174Y-112114181D02*
X91951481Y-111992243D01*
X85599559Y-111597430D02*
X85558842Y-111852460D01*
X88405644Y-113167556D02*
X88405644Y-111568836D01*
X91898134Y-111875116D02*
X91898134Y-112860432D01*
X91898710Y-112859409D02*
X91951481Y-112743302D01*
X86341844Y-108411166D02*
X86341844Y-116324376D01*
X86024344Y-114368026D02*
X86024344Y-116485966D01*
X87998644Y-113220046D02*
X88236068Y-113180994D01*
X86228744Y-116391836D02*
X90393564Y-113908376D01*
X91536854Y-113226666D02*
X91649934Y-113153314D01*
X90151884Y-113876546D02*
X90151884Y-114052489D01*
X89596244Y-111367366D02*
X89596244Y-113367816D01*
X87923344Y-113257156D02*
X87998644Y-113220046D01*
X89516844Y-113339406D02*
X89516844Y-111395436D01*
X85548144Y-114844306D02*
X85548144Y-116458606D01*
X89437544Y-114478466D02*
X89437544Y-113638031D01*
X85120793Y-108664935D02*
X85062438Y-108792356D01*
X90390014Y-113606886D02*
X90390014Y-112885272D01*
X88326244Y-111563566D02*
X88326244Y-113172496D01*
X89993144Y-110588366D02*
X89993144Y-110895360D01*
X86082678Y-108268947D02*
X85936744Y-108229034D01*
X85945044Y-110580066D02*
X85945044Y-114155546D01*
X91342514Y-113339756D02*
X91342514Y-111395426D01*
X87620944Y-114294866D02*
X87879744Y-113328926D01*
X85389344Y-116370756D02*
X85389344Y-115003066D01*
X85071844Y-108767966D02*
X85071844Y-109344189D01*
X90745149Y-111164891D02*
X90533368Y-111132686D01*
X70425644Y-121409616D02*
X70531477Y-121515449D01*
X85389344Y-108364966D02*
X85389344Y-109732506D01*
X85041111Y-115876906D02*
X85120521Y-116070703D01*
X91660014Y-113145326D02*
X91660014Y-111590236D01*
X87840488Y-114467155D02*
X87785721Y-114480838D01*
X87785721Y-114480838D02*
X87728044Y-114474832D01*
X87611844Y-109168466D02*
X87611844Y-115567096D01*
X87691244Y-110275066D02*
X87691244Y-109215806D01*
X89040644Y-110020366D02*
X89040644Y-111216416D01*
X86580044Y-116182386D02*
X86580044Y-108553156D01*
X87135644Y-108884466D02*
X87135644Y-115851066D01*
X89455311Y-111415883D02*
X89225589Y-111481590D01*
X86047444Y-114344936D02*
X85253444Y-115139046D01*
X87929344Y-114302896D02*
X87929344Y-115377756D01*
X85656563Y-113389978D02*
X85729853Y-113637648D01*
X89834344Y-113786576D02*
X89834344Y-114241817D01*
X90024444Y-112783646D02*
X90024444Y-112783646D01*
X89358144Y-113609026D02*
X89358144Y-114525796D01*
X85654886Y-108241277D02*
X85523769Y-108287261D01*
X88519158Y-111571792D02*
X88280968Y-111559632D01*
X90151884Y-111156666D02*
X90151884Y-111783401D01*
X90766094Y-112509186D02*
X90366074Y-112909216D01*
X89596244Y-114383806D02*
X89596244Y-113698487D01*
X88629644Y-113467376D02*
X88386381Y-113473411D01*
X90320529Y-111131710D02*
X90108874Y-111166818D01*
X90151884Y-110855966D02*
X90151884Y-110683062D01*
X90231264Y-111142066D02*
X90231264Y-111768027D01*
X95000000Y-134500000D02*
X95000000Y-129500000D01*
X90766094Y-112226366D02*
X90824704Y-112367746D01*
X90024744Y-112767776D02*
X90024744Y-111967776D01*
X86009254Y-116490385D02*
X86119112Y-116451092D01*
X88961244Y-111535766D02*
X88961244Y-113199606D01*
X90291750Y-113601187D02*
X90508667Y-113604538D01*
X106904761Y-114476190D02*
X106904761Y-113333333D01*
X108904761Y-113904761D02*
X106904761Y-113904761D01*
X106904761Y-112952380D02*
X106904761Y-111809523D01*
X108904761Y-112380952D02*
X106904761Y-112380952D01*
X106904761Y-111333333D02*
X108904761Y-110857142D01*
X107476190Y-110476190D01*
X108904761Y-110095238D01*
X106904761Y-109619047D01*
M02*
