%TF.GenerationSoftware,KiCad,Pcbnew,7.0.2*%
%TF.CreationDate,2023-10-27T11:19:11-06:00*%
%TF.ProjectId,TTW_AT_90,5454575f-4154-45f3-9930-2e6b69636164,rev?*%
%TF.SameCoordinates,Original*%
%TF.FileFunction,Copper,L1,Top*%
%TF.FilePolarity,Positive*%
%FSLAX46Y46*%
G04 Gerber Fmt 4.6, Leading zero omitted, Abs format (unit mm)*
G04 Created by KiCad (PCBNEW 7.0.2) date 2023-10-27 11:19:11*
%MOMM*%
%LPD*%
G01*
G04 APERTURE LIST*
%TA.AperFunction,NonConductor*%
%ADD10C,0.200000*%
%TD*%
%TA.AperFunction,ComponentPad*%
%ADD11C,2.700000*%
%TD*%
%TA.AperFunction,Conductor*%
%ADD12C,0.500000*%
%TD*%
%TA.AperFunction,Conductor*%
%ADD13C,4.500000*%
%TD*%
G04 APERTURE END LIST*
D10*
X128000000Y-17000000D02*
X129000000Y-17000000D01*
X129000000Y-25000000D01*
X119000000Y-25000000D01*
X119000000Y-8000000D01*
X128000000Y-17000000D01*
%TA.AperFunction,NonConductor*%
G36*
X128000000Y-17000000D02*
G01*
X129000000Y-17000000D01*
X129000000Y-25000000D01*
X119000000Y-25000000D01*
X119000000Y-8000000D01*
X128000000Y-17000000D01*
G37*
%TD.AperFunction*%
X80000000Y-5000000D02*
X60000000Y-25000000D01*
X54000000Y-20000000D01*
X72000000Y-2000000D01*
X80000000Y-5000000D01*
%TA.AperFunction,NonConductor*%
G36*
X80000000Y-5000000D02*
G01*
X60000000Y-25000000D01*
X54000000Y-20000000D01*
X72000000Y-2000000D01*
X80000000Y-5000000D01*
G37*
%TD.AperFunction*%
X2000000Y-17000000D02*
X60000000Y-17000000D01*
X60000000Y-25000000D01*
X2000000Y-25000000D01*
X2000000Y-17000000D01*
%TA.AperFunction,NonConductor*%
G36*
X2000000Y-17000000D02*
G01*
X60000000Y-17000000D01*
X60000000Y-25000000D01*
X2000000Y-25000000D01*
X2000000Y-17000000D01*
G37*
%TD.AperFunction*%
X129000000Y-17000000D02*
X148000000Y-17000000D01*
X148000000Y-25000000D01*
X129000000Y-25000000D01*
X129000000Y-17000000D01*
%TA.AperFunction,NonConductor*%
G36*
X129000000Y-17000000D02*
G01*
X148000000Y-17000000D01*
X148000000Y-25000000D01*
X129000000Y-25000000D01*
X129000000Y-17000000D01*
G37*
%TD.AperFunction*%
D11*
%TO.P,J1,1,Pin_1*%
%TO.N,unconnected-(J1-Pin_1-Pad1)*%
X100000000Y-16210000D03*
%TO.P,J1,2,Pin_2*%
%TO.N,unconnected-(J1-Pin_2-Pad2)*%
X100000000Y-11790000D03*
%TO.P,J1,3,Pin_3*%
%TO.N,unconnected-(J1-Pin_3-Pad3)*%
X109100000Y-11790000D03*
X90900000Y-11790000D03*
%TO.P,J1,4,Pin_4*%
%TO.N,unconnected-(J1-Pin_4-Pad4)*%
X109100000Y-16210000D03*
X90900000Y-16210000D03*
%TD*%
D12*
%TO.N,unconnected-(J1-Pin_1-Pad1)*%
X17000000Y-23550000D02*
X16000000Y-23550000D01*
X19450000Y-26000000D02*
X17000000Y-23550000D01*
X61000000Y-26000000D02*
X19450000Y-26000000D01*
X92000000Y-6000000D02*
X81000000Y-6000000D01*
X97000000Y-11000000D02*
X92000000Y-6000000D01*
X97000000Y-15000000D02*
X97000000Y-11000000D01*
X98210000Y-16210000D02*
X97000000Y-15000000D01*
X81000000Y-6000000D02*
X61000000Y-26000000D01*
X100000000Y-16210000D02*
X98210000Y-16210000D01*
%TO.N,unconnected-(J1-Pin_4-Pad4)*%
X139000000Y-16000000D02*
X139000000Y-17000000D01*
X138000000Y-15000000D02*
X139000000Y-16000000D01*
X103000000Y-12000000D02*
X110000000Y-5000000D01*
X110000000Y-5000000D02*
X119000000Y-5000000D01*
X119000000Y-5000000D02*
X129000000Y-15000000D01*
X129000000Y-15000000D02*
X138000000Y-15000000D01*
X103000000Y-19000000D02*
X103000000Y-12000000D01*
X103000000Y-19000000D02*
X106310000Y-19000000D01*
X93690000Y-19000000D02*
X103000000Y-19000000D01*
X106310000Y-19000000D02*
X109100000Y-16210000D01*
X90900000Y-16210000D02*
X93690000Y-19000000D01*
D13*
%TO.N,unconnected-(J1-Pin_3-Pad3)*%
X119000000Y-23000000D02*
X121000000Y-21000000D01*
X84000000Y-23000000D02*
X119000000Y-23000000D01*
X80000000Y-12000000D02*
X80000000Y-19000000D01*
X83000000Y-9000000D02*
X80000000Y-12000000D01*
X88110000Y-9000000D02*
X83000000Y-9000000D01*
X80000000Y-19000000D02*
X84000000Y-23000000D01*
X90900000Y-11790000D02*
X88110000Y-9000000D01*
X121000000Y-13000000D02*
X121000000Y-21000000D01*
X117000000Y-9000000D02*
X121000000Y-13000000D01*
X111890000Y-9000000D02*
X117000000Y-9000000D01*
X109100000Y-11790000D02*
X111890000Y-9000000D01*
%TO.N,unconnected-(J1-Pin_2-Pad2)*%
X74000000Y-3000000D02*
X61000000Y-16000000D01*
X94000000Y-3000000D02*
X74000000Y-3000000D01*
X100000000Y-9000000D02*
X94000000Y-3000000D01*
X100000000Y-11790000D02*
X100000000Y-9000000D01*
%TD*%
M02*
