%TF.GenerationSoftware,KiCad,Pcbnew,7.0.2*%
%TF.CreationDate,2023-10-27T11:19:11-06:00*%
%TF.ProjectId,TTW_AT_90,5454575f-4154-45f3-9930-2e6b69636164,rev?*%
%TF.SameCoordinates,Original*%
%TF.FileFunction,Profile,NP*%
%FSLAX46Y46*%
G04 Gerber Fmt 4.6, Leading zero omitted, Abs format (unit mm)*
G04 Created by KiCad (PCBNEW 7.0.2) date 2023-10-27 11:19:11*
%MOMM*%
%LPD*%
G01*
G04 APERTURE LIST*
%TA.AperFunction,Profile*%
%ADD10C,0.550000*%
%TD*%
%TA.AperFunction,Profile*%
%ADD11C,0.100000*%
%TD*%
%TA.AperFunction,Profile*%
%ADD12C,1.675000*%
%TD*%
G04 APERTURE END LIST*
D10*
X76775000Y-36000000D02*
G75*
G03*
X76775000Y-36000000I-275000J0D01*
G01*
X142775000Y-36000000D02*
G75*
G03*
X142775000Y-36000000I-275000J0D01*
G01*
X7775000Y-36000000D02*
G75*
G03*
X7775000Y-36000000I-275000J0D01*
G01*
X118775000Y-33000000D02*
G75*
G03*
X118775000Y-33000000I-275000J0D01*
G01*
X49775000Y-36000000D02*
G75*
G03*
X49775000Y-36000000I-275000J0D01*
G01*
X112775000Y-30000000D02*
G75*
G03*
X112775000Y-30000000I-275000J0D01*
G01*
D11*
X150000000Y-2000000D02*
G75*
G03*
X148000000Y0I-2000000J0D01*
G01*
X148000000Y-38000000D02*
X2000000Y-38000000D01*
D10*
X55775000Y-33000000D02*
G75*
G03*
X55775000Y-33000000I-275000J0D01*
G01*
X61775000Y-33000000D02*
G75*
G03*
X61775000Y-33000000I-275000J0D01*
G01*
X52775000Y-30000000D02*
G75*
G03*
X52775000Y-30000000I-275000J0D01*
G01*
X148275000Y-33000000D02*
G75*
G03*
X148275000Y-33000000I-275000J0D01*
G01*
X34775000Y-36000000D02*
G75*
G03*
X34775000Y-36000000I-275000J0D01*
G01*
X25775000Y-33000000D02*
G75*
G03*
X25775000Y-33000000I-275000J0D01*
G01*
X58775000Y-36000000D02*
G75*
G03*
X58775000Y-36000000I-275000J0D01*
G01*
X139775000Y-36000000D02*
G75*
G03*
X139775000Y-36000000I-275000J0D01*
G01*
X121775000Y-30000000D02*
G75*
G03*
X121775000Y-30000000I-275000J0D01*
G01*
X145775000Y-30000000D02*
G75*
G03*
X145775000Y-30000000I-275000J0D01*
G01*
X43775000Y-36000000D02*
G75*
G03*
X43775000Y-36000000I-275000J0D01*
G01*
X94775000Y-30000000D02*
G75*
G03*
X94775000Y-30000000I-275000J0D01*
G01*
X31775000Y-36000000D02*
G75*
G03*
X31775000Y-36000000I-275000J0D01*
G01*
X91775000Y-36000000D02*
G75*
G03*
X91775000Y-36000000I-275000J0D01*
G01*
X67775000Y-36000000D02*
G75*
G03*
X67775000Y-36000000I-275000J0D01*
G01*
X16775000Y-36000000D02*
G75*
G03*
X16775000Y-36000000I-275000J0D01*
G01*
X10775000Y-30000000D02*
G75*
G03*
X10775000Y-30000000I-275000J0D01*
G01*
X55775000Y-30000000D02*
G75*
G03*
X55775000Y-30000000I-275000J0D01*
G01*
X106775000Y-30000000D02*
G75*
G03*
X106775000Y-30000000I-275000J0D01*
G01*
X133775000Y-36000000D02*
G75*
G03*
X133775000Y-36000000I-275000J0D01*
G01*
X106775000Y-36000000D02*
G75*
G03*
X106775000Y-36000000I-275000J0D01*
G01*
X133775000Y-30000000D02*
G75*
G03*
X133775000Y-30000000I-275000J0D01*
G01*
X2275000Y-33000000D02*
G75*
G03*
X2275000Y-33000000I-275000J0D01*
G01*
X31775000Y-30000000D02*
G75*
G03*
X31775000Y-30000000I-275000J0D01*
G01*
X109775000Y-33000000D02*
G75*
G03*
X109775000Y-33000000I-275000J0D01*
G01*
D11*
X2000000Y0D02*
X148000000Y0D01*
D10*
X28775000Y-30000000D02*
G75*
G03*
X28775000Y-30000000I-275000J0D01*
G01*
X88775000Y-30000000D02*
G75*
G03*
X88775000Y-30000000I-275000J0D01*
G01*
X73775000Y-30000000D02*
G75*
G03*
X73775000Y-30000000I-275000J0D01*
G01*
X133775000Y-33000000D02*
G75*
G03*
X133775000Y-33000000I-275000J0D01*
G01*
X7775000Y-30000000D02*
G75*
G03*
X7775000Y-30000000I-275000J0D01*
G01*
X70775000Y-36000000D02*
G75*
G03*
X70775000Y-36000000I-275000J0D01*
G01*
X49775000Y-33000000D02*
G75*
G03*
X49775000Y-33000000I-275000J0D01*
G01*
X148275000Y-36000000D02*
G75*
G03*
X148275000Y-36000000I-275000J0D01*
G01*
X85775000Y-33000000D02*
G75*
G03*
X85775000Y-33000000I-275000J0D01*
G01*
X94775000Y-33000000D02*
G75*
G03*
X94775000Y-33000000I-275000J0D01*
G01*
X127775000Y-36000000D02*
G75*
G03*
X127775000Y-36000000I-275000J0D01*
G01*
X19775000Y-36000000D02*
G75*
G03*
X19775000Y-36000000I-275000J0D01*
G01*
X124775000Y-30000000D02*
G75*
G03*
X124775000Y-30000000I-275000J0D01*
G01*
X64775000Y-36000000D02*
G75*
G03*
X64775000Y-36000000I-275000J0D01*
G01*
X85775000Y-36000000D02*
G75*
G03*
X85775000Y-36000000I-275000J0D01*
G01*
X67775000Y-30000000D02*
G75*
G03*
X67775000Y-30000000I-275000J0D01*
G01*
X73775000Y-36000000D02*
G75*
G03*
X73775000Y-36000000I-275000J0D01*
G01*
X16775000Y-33000000D02*
G75*
G03*
X16775000Y-33000000I-275000J0D01*
G01*
X109775000Y-30000000D02*
G75*
G03*
X109775000Y-30000000I-275000J0D01*
G01*
X139775000Y-30000000D02*
G75*
G03*
X139775000Y-30000000I-275000J0D01*
G01*
X70775000Y-33000000D02*
G75*
G03*
X70775000Y-33000000I-275000J0D01*
G01*
X91775000Y-30000000D02*
G75*
G03*
X91775000Y-30000000I-275000J0D01*
G01*
X22775000Y-33000000D02*
G75*
G03*
X22775000Y-33000000I-275000J0D01*
G01*
X52775000Y-36000000D02*
G75*
G03*
X52775000Y-36000000I-275000J0D01*
G01*
X121775000Y-36000000D02*
G75*
G03*
X121775000Y-36000000I-275000J0D01*
G01*
X115775000Y-30000000D02*
G75*
G03*
X115775000Y-30000000I-275000J0D01*
G01*
X103775000Y-36000000D02*
G75*
G03*
X103775000Y-36000000I-275000J0D01*
G01*
X34775000Y-30000000D02*
G75*
G03*
X34775000Y-30000000I-275000J0D01*
G01*
X115775000Y-33000000D02*
G75*
G03*
X115775000Y-33000000I-275000J0D01*
G01*
X130775000Y-33000000D02*
G75*
G03*
X130775000Y-33000000I-275000J0D01*
G01*
X37775000Y-30000000D02*
G75*
G03*
X37775000Y-30000000I-275000J0D01*
G01*
X142775000Y-30000000D02*
G75*
G03*
X142775000Y-30000000I-275000J0D01*
G01*
X4775000Y-30000000D02*
G75*
G03*
X4775000Y-30000000I-275000J0D01*
G01*
X70775000Y-30000000D02*
G75*
G03*
X70775000Y-30000000I-275000J0D01*
G01*
X130775000Y-30000000D02*
G75*
G03*
X130775000Y-30000000I-275000J0D01*
G01*
X25775000Y-36000000D02*
G75*
G03*
X25775000Y-36000000I-275000J0D01*
G01*
X118775000Y-36000000D02*
G75*
G03*
X118775000Y-36000000I-275000J0D01*
G01*
X103775000Y-30000000D02*
G75*
G03*
X103775000Y-30000000I-275000J0D01*
G01*
X49775000Y-30000000D02*
G75*
G03*
X49775000Y-30000000I-275000J0D01*
G01*
X76775000Y-30000000D02*
G75*
G03*
X76775000Y-30000000I-275000J0D01*
G01*
X106775000Y-33000000D02*
G75*
G03*
X106775000Y-33000000I-275000J0D01*
G01*
X13775000Y-33000000D02*
G75*
G03*
X13775000Y-33000000I-275000J0D01*
G01*
X112775000Y-33000000D02*
G75*
G03*
X112775000Y-33000000I-275000J0D01*
G01*
X79775000Y-30000000D02*
G75*
G03*
X79775000Y-30000000I-275000J0D01*
G01*
X13775000Y-30000000D02*
G75*
G03*
X13775000Y-30000000I-275000J0D01*
G01*
D11*
X2000000Y0D02*
G75*
G03*
X0Y-2000000I-1J-1999999D01*
G01*
X0Y-36000000D02*
X0Y-2000000D01*
D10*
X10775000Y-36000000D02*
G75*
G03*
X10775000Y-36000000I-275000J0D01*
G01*
X43775000Y-30000000D02*
G75*
G03*
X43775000Y-30000000I-275000J0D01*
G01*
X46775000Y-30000000D02*
G75*
G03*
X46775000Y-30000000I-275000J0D01*
G01*
X88775000Y-33000000D02*
G75*
G03*
X88775000Y-33000000I-275000J0D01*
G01*
X97775000Y-33000000D02*
G75*
G03*
X97775000Y-33000000I-275000J0D01*
G01*
X97775000Y-36000000D02*
G75*
G03*
X97775000Y-36000000I-275000J0D01*
G01*
X76775000Y-33000000D02*
G75*
G03*
X76775000Y-33000000I-275000J0D01*
G01*
X130775000Y-36000000D02*
G75*
G03*
X130775000Y-36000000I-275000J0D01*
G01*
X4775000Y-36000000D02*
G75*
G03*
X4775000Y-36000000I-275000J0D01*
G01*
X148275000Y-30000000D02*
G75*
G03*
X148275000Y-30000000I-275000J0D01*
G01*
X58775000Y-30000000D02*
G75*
G03*
X58775000Y-30000000I-275000J0D01*
G01*
X25775000Y-30000000D02*
G75*
G03*
X25775000Y-30000000I-275000J0D01*
G01*
D11*
X150000000Y-2000000D02*
X150000000Y-36000000D01*
D10*
X88775000Y-36000000D02*
G75*
G03*
X88775000Y-36000000I-275000J0D01*
G01*
X100775000Y-33000000D02*
G75*
G03*
X100775000Y-33000000I-275000J0D01*
G01*
X82775000Y-30000000D02*
G75*
G03*
X82775000Y-30000000I-275000J0D01*
G01*
X28775000Y-33000000D02*
G75*
G03*
X28775000Y-33000000I-275000J0D01*
G01*
X13775000Y-36000000D02*
G75*
G03*
X13775000Y-36000000I-275000J0D01*
G01*
X19775000Y-30000000D02*
G75*
G03*
X19775000Y-30000000I-275000J0D01*
G01*
X10775000Y-33000000D02*
G75*
G03*
X10775000Y-33000000I-275000J0D01*
G01*
X82775000Y-36000000D02*
G75*
G03*
X82775000Y-36000000I-275000J0D01*
G01*
X37775000Y-33000000D02*
G75*
G03*
X37775000Y-33000000I-275000J0D01*
G01*
X100775000Y-30000000D02*
G75*
G03*
X100775000Y-30000000I-275000J0D01*
G01*
X97775000Y-30000000D02*
G75*
G03*
X97775000Y-30000000I-275000J0D01*
G01*
X91775000Y-33000000D02*
G75*
G03*
X91775000Y-33000000I-275000J0D01*
G01*
X40775000Y-33000000D02*
G75*
G03*
X40775000Y-33000000I-275000J0D01*
G01*
X31775000Y-33000000D02*
G75*
G03*
X31775000Y-33000000I-275000J0D01*
G01*
X64775000Y-33000000D02*
G75*
G03*
X64775000Y-33000000I-275000J0D01*
G01*
X109775000Y-36000000D02*
G75*
G03*
X109775000Y-36000000I-275000J0D01*
G01*
X19775000Y-33000000D02*
G75*
G03*
X19775000Y-33000000I-275000J0D01*
G01*
X40775000Y-30000000D02*
G75*
G03*
X40775000Y-30000000I-275000J0D01*
G01*
X82775000Y-33000000D02*
G75*
G03*
X82775000Y-33000000I-275000J0D01*
G01*
X103775000Y-33000000D02*
G75*
G03*
X103775000Y-33000000I-275000J0D01*
G01*
X127775000Y-30000000D02*
G75*
G03*
X127775000Y-30000000I-275000J0D01*
G01*
X61775000Y-30000000D02*
G75*
G03*
X61775000Y-30000000I-275000J0D01*
G01*
X121775000Y-33000000D02*
G75*
G03*
X121775000Y-33000000I-275000J0D01*
G01*
X79775000Y-33000000D02*
G75*
G03*
X79775000Y-33000000I-275000J0D01*
G01*
X112775000Y-36000000D02*
G75*
G03*
X112775000Y-36000000I-275000J0D01*
G01*
X37775000Y-36000000D02*
G75*
G03*
X37775000Y-36000000I-275000J0D01*
G01*
X136775000Y-36000000D02*
G75*
G03*
X136775000Y-36000000I-275000J0D01*
G01*
X34775000Y-33000000D02*
G75*
G03*
X34775000Y-33000000I-275000J0D01*
G01*
X136775000Y-30000000D02*
G75*
G03*
X136775000Y-30000000I-275000J0D01*
G01*
X2275000Y-30000000D02*
G75*
G03*
X2275000Y-30000000I-275000J0D01*
G01*
X46775000Y-33000000D02*
G75*
G03*
X46775000Y-33000000I-275000J0D01*
G01*
X61775000Y-36000000D02*
G75*
G03*
X61775000Y-36000000I-275000J0D01*
G01*
X142775000Y-33000000D02*
G75*
G03*
X142775000Y-33000000I-275000J0D01*
G01*
X64775000Y-30000000D02*
G75*
G03*
X64775000Y-30000000I-275000J0D01*
G01*
X115775000Y-36000000D02*
G75*
G03*
X115775000Y-36000000I-275000J0D01*
G01*
X22775000Y-30000000D02*
G75*
G03*
X22775000Y-30000000I-275000J0D01*
G01*
X124775000Y-36000000D02*
G75*
G03*
X124775000Y-36000000I-275000J0D01*
G01*
X28775000Y-36000000D02*
G75*
G03*
X28775000Y-36000000I-275000J0D01*
G01*
X46775000Y-36000000D02*
G75*
G03*
X46775000Y-36000000I-275000J0D01*
G01*
X16775000Y-30000000D02*
G75*
G03*
X16775000Y-30000000I-275000J0D01*
G01*
X7775000Y-33000000D02*
G75*
G03*
X7775000Y-33000000I-275000J0D01*
G01*
X43775000Y-33000000D02*
G75*
G03*
X43775000Y-33000000I-275000J0D01*
G01*
X67775000Y-33000000D02*
G75*
G03*
X67775000Y-33000000I-275000J0D01*
G01*
X127775000Y-33000000D02*
G75*
G03*
X127775000Y-33000000I-275000J0D01*
G01*
D11*
X148000000Y-38000000D02*
G75*
G03*
X150000000Y-36000000I0J2000000D01*
G01*
D10*
X100775000Y-36000000D02*
G75*
G03*
X100775000Y-36000000I-275000J0D01*
G01*
X124775000Y-33000000D02*
G75*
G03*
X124775000Y-33000000I-275000J0D01*
G01*
X4775000Y-33000000D02*
G75*
G03*
X4775000Y-33000000I-275000J0D01*
G01*
D11*
X0Y-36000000D02*
G75*
G03*
X2000000Y-38000000I2000000J0D01*
G01*
D10*
X139775000Y-33000000D02*
G75*
G03*
X139775000Y-33000000I-275000J0D01*
G01*
X145775000Y-33000000D02*
G75*
G03*
X145775000Y-33000000I-275000J0D01*
G01*
X79775000Y-36000000D02*
G75*
G03*
X79775000Y-36000000I-275000J0D01*
G01*
X94775000Y-36000000D02*
G75*
G03*
X94775000Y-36000000I-275000J0D01*
G01*
X52775000Y-33000000D02*
G75*
G03*
X52775000Y-33000000I-275000J0D01*
G01*
X58775000Y-33000000D02*
G75*
G03*
X58775000Y-33000000I-275000J0D01*
G01*
X40775000Y-36000000D02*
G75*
G03*
X40775000Y-36000000I-275000J0D01*
G01*
X118775000Y-30000000D02*
G75*
G03*
X118775000Y-30000000I-275000J0D01*
G01*
X55775000Y-36000000D02*
G75*
G03*
X55775000Y-36000000I-275000J0D01*
G01*
X73775000Y-33000000D02*
G75*
G03*
X73775000Y-33000000I-275000J0D01*
G01*
X2275000Y-36000000D02*
G75*
G03*
X2275000Y-36000000I-275000J0D01*
G01*
X145775000Y-36000000D02*
G75*
G03*
X145775000Y-36000000I-275000J0D01*
G01*
X85775000Y-30000000D02*
G75*
G03*
X85775000Y-30000000I-275000J0D01*
G01*
X22775000Y-36000000D02*
G75*
G03*
X22775000Y-36000000I-275000J0D01*
G01*
X136775000Y-33000000D02*
G75*
G03*
X136775000Y-33000000I-275000J0D01*
G01*
%TO.C,J1*%
D12*
X115802500Y-14000000D02*
G75*
G03*
X115802500Y-14000000I-837500J0D01*
G01*
X106702500Y-14000000D02*
G75*
G03*
X106702500Y-14000000I-837500J0D01*
G01*
X94972500Y-14000000D02*
G75*
G03*
X94972500Y-14000000I-837500J0D01*
G01*
X85872500Y-14000000D02*
G75*
G03*
X85872500Y-14000000I-837500J0D01*
G01*
%TD*%
M02*
