%TF.GenerationSoftware,KiCad,Pcbnew,7.0.2*%
%TF.CreationDate,2023-10-27T11:19:11-06:00*%
%TF.ProjectId,TTW_AT_90,5454575f-4154-45f3-9930-2e6b69636164,rev?*%
%TF.SameCoordinates,Original*%
%TF.FileFunction,Legend,Top*%
%TF.FilePolarity,Positive*%
%FSLAX46Y46*%
G04 Gerber Fmt 4.6, Leading zero omitted, Abs format (unit mm)*
G04 Created by KiCad (PCBNEW 7.0.2) date 2023-10-27 11:19:11*
%MOMM*%
%LPD*%
G01*
G04 APERTURE LIST*
%ADD10C,0.300000*%
%ADD11C,0.100000*%
%ADD12C,0.150000*%
G04 APERTURE END LIST*
D10*
X91285714Y-23387857D02*
X92000000Y-23387857D01*
X91142857Y-23816428D02*
X91642857Y-22316428D01*
X91642857Y-22316428D02*
X92142857Y-23816428D01*
X92428571Y-22316428D02*
X93285714Y-22316428D01*
X92857142Y-23816428D02*
X92857142Y-22316428D01*
X94285713Y-23030714D02*
X93785713Y-23030714D01*
X93785713Y-23816428D02*
X93785713Y-22316428D01*
X93785713Y-22316428D02*
X94499999Y-22316428D01*
X95857142Y-23816428D02*
X94999999Y-23816428D01*
X95428570Y-23816428D02*
X95428570Y-22316428D01*
X95428570Y-22316428D02*
X95285713Y-22530714D01*
X95285713Y-22530714D02*
X95142856Y-22673571D01*
X95142856Y-22673571D02*
X94999999Y-22745000D01*
X96357141Y-22316428D02*
X97285713Y-22316428D01*
X97285713Y-22316428D02*
X96785713Y-22887857D01*
X96785713Y-22887857D02*
X96999998Y-22887857D01*
X96999998Y-22887857D02*
X97142856Y-22959285D01*
X97142856Y-22959285D02*
X97214284Y-23030714D01*
X97214284Y-23030714D02*
X97285713Y-23173571D01*
X97285713Y-23173571D02*
X97285713Y-23530714D01*
X97285713Y-23530714D02*
X97214284Y-23673571D01*
X97214284Y-23673571D02*
X97142856Y-23745000D01*
X97142856Y-23745000D02*
X96999998Y-23816428D01*
X96999998Y-23816428D02*
X96571427Y-23816428D01*
X96571427Y-23816428D02*
X96428570Y-23745000D01*
X96428570Y-23745000D02*
X96357141Y-23673571D01*
X97928569Y-23245000D02*
X99071427Y-23245000D01*
X100428570Y-22816428D02*
X100428570Y-23816428D01*
X100071427Y-22245000D02*
X99714284Y-23316428D01*
X99714284Y-23316428D02*
X100642855Y-23316428D01*
X101214283Y-23816428D02*
X101214283Y-22316428D01*
X101214283Y-22316428D02*
X101785712Y-22316428D01*
X101785712Y-22316428D02*
X101928569Y-22387857D01*
X101928569Y-22387857D02*
X101999998Y-22459285D01*
X101999998Y-22459285D02*
X102071426Y-22602142D01*
X102071426Y-22602142D02*
X102071426Y-22816428D01*
X102071426Y-22816428D02*
X101999998Y-22959285D01*
X101999998Y-22959285D02*
X101928569Y-23030714D01*
X101928569Y-23030714D02*
X101785712Y-23102142D01*
X101785712Y-23102142D02*
X101214283Y-23102142D01*
X102714283Y-23245000D02*
X103857141Y-23245000D01*
X105071426Y-23030714D02*
X105285712Y-23102142D01*
X105285712Y-23102142D02*
X105357141Y-23173571D01*
X105357141Y-23173571D02*
X105428569Y-23316428D01*
X105428569Y-23316428D02*
X105428569Y-23530714D01*
X105428569Y-23530714D02*
X105357141Y-23673571D01*
X105357141Y-23673571D02*
X105285712Y-23745000D01*
X105285712Y-23745000D02*
X105142855Y-23816428D01*
X105142855Y-23816428D02*
X104571426Y-23816428D01*
X104571426Y-23816428D02*
X104571426Y-22316428D01*
X104571426Y-22316428D02*
X105071426Y-22316428D01*
X105071426Y-22316428D02*
X105214284Y-22387857D01*
X105214284Y-22387857D02*
X105285712Y-22459285D01*
X105285712Y-22459285D02*
X105357141Y-22602142D01*
X105357141Y-22602142D02*
X105357141Y-22745000D01*
X105357141Y-22745000D02*
X105285712Y-22887857D01*
X105285712Y-22887857D02*
X105214284Y-22959285D01*
X105214284Y-22959285D02*
X105071426Y-23030714D01*
X105071426Y-23030714D02*
X104571426Y-23030714D01*
X106071426Y-23816428D02*
X106071426Y-22316428D01*
X106071426Y-22316428D02*
X106571426Y-23387857D01*
X106571426Y-23387857D02*
X107071426Y-22316428D01*
X107071426Y-22316428D02*
X107071426Y-23816428D01*
X107642855Y-22316428D02*
X108642855Y-23816428D01*
X108642855Y-22316428D02*
X107642855Y-23816428D01*
X109071426Y-22316428D02*
X110071426Y-23816428D01*
X110071426Y-22316428D02*
X109071426Y-23816428D01*
X2214285Y-2316428D02*
X3214285Y-2316428D01*
X3214285Y-2316428D02*
X2571428Y-3816428D01*
X3785713Y-3673571D02*
X3857142Y-3745000D01*
X3857142Y-3745000D02*
X3785713Y-3816428D01*
X3785713Y-3816428D02*
X3714285Y-3745000D01*
X3714285Y-3745000D02*
X3785713Y-3673571D01*
X3785713Y-3673571D02*
X3785713Y-3816428D01*
X5214285Y-2316428D02*
X4499999Y-2316428D01*
X4499999Y-2316428D02*
X4428571Y-3030714D01*
X4428571Y-3030714D02*
X4499999Y-2959285D01*
X4499999Y-2959285D02*
X4642857Y-2887857D01*
X4642857Y-2887857D02*
X4999999Y-2887857D01*
X4999999Y-2887857D02*
X5142857Y-2959285D01*
X5142857Y-2959285D02*
X5214285Y-3030714D01*
X5214285Y-3030714D02*
X5285714Y-3173571D01*
X5285714Y-3173571D02*
X5285714Y-3530714D01*
X5285714Y-3530714D02*
X5214285Y-3673571D01*
X5214285Y-3673571D02*
X5142857Y-3745000D01*
X5142857Y-3745000D02*
X4999999Y-3816428D01*
X4999999Y-3816428D02*
X4642857Y-3816428D01*
X4642857Y-3816428D02*
X4499999Y-3745000D01*
X4499999Y-3745000D02*
X4428571Y-3673571D01*
X5857142Y-3387857D02*
X6571428Y-3387857D01*
X5714285Y-3816428D02*
X6214285Y-2316428D01*
X6214285Y-2316428D02*
X6714285Y-3816428D01*
X8357141Y-3816428D02*
X8357141Y-2316428D01*
X8357141Y-2316428D02*
X8857141Y-3387857D01*
X8857141Y-3387857D02*
X9357141Y-2316428D01*
X9357141Y-2316428D02*
X9357141Y-3816428D01*
X9999999Y-3387857D02*
X10714285Y-3387857D01*
X9857142Y-3816428D02*
X10357142Y-2316428D01*
X10357142Y-2316428D02*
X10857142Y-3816428D01*
X11214284Y-2316428D02*
X12214284Y-3816428D01*
X12214284Y-2316428D02*
X11214284Y-3816428D01*
X133357142Y-3526428D02*
X133357142Y-2026428D01*
X133357142Y-2026428D02*
X133928571Y-2026428D01*
X133928571Y-2026428D02*
X134071428Y-2097857D01*
X134071428Y-2097857D02*
X134142857Y-2169285D01*
X134142857Y-2169285D02*
X134214285Y-2312142D01*
X134214285Y-2312142D02*
X134214285Y-2526428D01*
X134214285Y-2526428D02*
X134142857Y-2669285D01*
X134142857Y-2669285D02*
X134071428Y-2740714D01*
X134071428Y-2740714D02*
X133928571Y-2812142D01*
X133928571Y-2812142D02*
X133357142Y-2812142D01*
X134857142Y-3526428D02*
X134857142Y-2526428D01*
X134857142Y-2026428D02*
X134785714Y-2097857D01*
X134785714Y-2097857D02*
X134857142Y-2169285D01*
X134857142Y-2169285D02*
X134928571Y-2097857D01*
X134928571Y-2097857D02*
X134857142Y-2026428D01*
X134857142Y-2026428D02*
X134857142Y-2169285D01*
X135571428Y-2526428D02*
X135571428Y-3526428D01*
X135571428Y-2669285D02*
X135642857Y-2597857D01*
X135642857Y-2597857D02*
X135785714Y-2526428D01*
X135785714Y-2526428D02*
X136000000Y-2526428D01*
X136000000Y-2526428D02*
X136142857Y-2597857D01*
X136142857Y-2597857D02*
X136214286Y-2740714D01*
X136214286Y-2740714D02*
X136214286Y-3526428D01*
X138857143Y-3526428D02*
X138000000Y-3526428D01*
X138428571Y-3526428D02*
X138428571Y-2026428D01*
X138428571Y-2026428D02*
X138285714Y-2240714D01*
X138285714Y-2240714D02*
X138142857Y-2383571D01*
X138142857Y-2383571D02*
X138000000Y-2455000D01*
X139499999Y-3383571D02*
X139571428Y-3455000D01*
X139571428Y-3455000D02*
X139499999Y-3526428D01*
X139499999Y-3526428D02*
X139428571Y-3455000D01*
X139428571Y-3455000D02*
X139499999Y-3383571D01*
X139499999Y-3383571D02*
X139499999Y-3526428D01*
X139499999Y-2597857D02*
X139571428Y-2669285D01*
X139571428Y-2669285D02*
X139499999Y-2740714D01*
X139499999Y-2740714D02*
X139428571Y-2669285D01*
X139428571Y-2669285D02*
X139499999Y-2597857D01*
X139499999Y-2597857D02*
X139499999Y-2740714D01*
X141142857Y-2026428D02*
X141642857Y-3526428D01*
X141642857Y-3526428D02*
X142142857Y-2026428D01*
X143785713Y-2955000D02*
X144928571Y-2955000D01*
X133357142Y-5956428D02*
X133357142Y-4456428D01*
X133357142Y-4456428D02*
X133928571Y-4456428D01*
X133928571Y-4456428D02*
X134071428Y-4527857D01*
X134071428Y-4527857D02*
X134142857Y-4599285D01*
X134142857Y-4599285D02*
X134214285Y-4742142D01*
X134214285Y-4742142D02*
X134214285Y-4956428D01*
X134214285Y-4956428D02*
X134142857Y-5099285D01*
X134142857Y-5099285D02*
X134071428Y-5170714D01*
X134071428Y-5170714D02*
X133928571Y-5242142D01*
X133928571Y-5242142D02*
X133357142Y-5242142D01*
X134857142Y-5956428D02*
X134857142Y-4956428D01*
X134857142Y-4456428D02*
X134785714Y-4527857D01*
X134785714Y-4527857D02*
X134857142Y-4599285D01*
X134857142Y-4599285D02*
X134928571Y-4527857D01*
X134928571Y-4527857D02*
X134857142Y-4456428D01*
X134857142Y-4456428D02*
X134857142Y-4599285D01*
X135571428Y-4956428D02*
X135571428Y-5956428D01*
X135571428Y-5099285D02*
X135642857Y-5027857D01*
X135642857Y-5027857D02*
X135785714Y-4956428D01*
X135785714Y-4956428D02*
X136000000Y-4956428D01*
X136000000Y-4956428D02*
X136142857Y-5027857D01*
X136142857Y-5027857D02*
X136214286Y-5170714D01*
X136214286Y-5170714D02*
X136214286Y-5956428D01*
X138000000Y-4599285D02*
X138071428Y-4527857D01*
X138071428Y-4527857D02*
X138214286Y-4456428D01*
X138214286Y-4456428D02*
X138571428Y-4456428D01*
X138571428Y-4456428D02*
X138714286Y-4527857D01*
X138714286Y-4527857D02*
X138785714Y-4599285D01*
X138785714Y-4599285D02*
X138857143Y-4742142D01*
X138857143Y-4742142D02*
X138857143Y-4885000D01*
X138857143Y-4885000D02*
X138785714Y-5099285D01*
X138785714Y-5099285D02*
X137928571Y-5956428D01*
X137928571Y-5956428D02*
X138857143Y-5956428D01*
X139499999Y-5813571D02*
X139571428Y-5885000D01*
X139571428Y-5885000D02*
X139499999Y-5956428D01*
X139499999Y-5956428D02*
X139428571Y-5885000D01*
X139428571Y-5885000D02*
X139499999Y-5813571D01*
X139499999Y-5813571D02*
X139499999Y-5956428D01*
X139499999Y-5027857D02*
X139571428Y-5099285D01*
X139571428Y-5099285D02*
X139499999Y-5170714D01*
X139499999Y-5170714D02*
X139428571Y-5099285D01*
X139428571Y-5099285D02*
X139499999Y-5027857D01*
X139499999Y-5027857D02*
X139499999Y-5170714D01*
X141357142Y-5956428D02*
X141357142Y-4456428D01*
X143214285Y-5385000D02*
X144357143Y-5385000D01*
X133357142Y-8386428D02*
X133357142Y-6886428D01*
X133357142Y-6886428D02*
X133928571Y-6886428D01*
X133928571Y-6886428D02*
X134071428Y-6957857D01*
X134071428Y-6957857D02*
X134142857Y-7029285D01*
X134142857Y-7029285D02*
X134214285Y-7172142D01*
X134214285Y-7172142D02*
X134214285Y-7386428D01*
X134214285Y-7386428D02*
X134142857Y-7529285D01*
X134142857Y-7529285D02*
X134071428Y-7600714D01*
X134071428Y-7600714D02*
X133928571Y-7672142D01*
X133928571Y-7672142D02*
X133357142Y-7672142D01*
X134857142Y-8386428D02*
X134857142Y-7386428D01*
X134857142Y-6886428D02*
X134785714Y-6957857D01*
X134785714Y-6957857D02*
X134857142Y-7029285D01*
X134857142Y-7029285D02*
X134928571Y-6957857D01*
X134928571Y-6957857D02*
X134857142Y-6886428D01*
X134857142Y-6886428D02*
X134857142Y-7029285D01*
X135571428Y-7386428D02*
X135571428Y-8386428D01*
X135571428Y-7529285D02*
X135642857Y-7457857D01*
X135642857Y-7457857D02*
X135785714Y-7386428D01*
X135785714Y-7386428D02*
X136000000Y-7386428D01*
X136000000Y-7386428D02*
X136142857Y-7457857D01*
X136142857Y-7457857D02*
X136214286Y-7600714D01*
X136214286Y-7600714D02*
X136214286Y-8386428D01*
X137928571Y-6886428D02*
X138857143Y-6886428D01*
X138857143Y-6886428D02*
X138357143Y-7457857D01*
X138357143Y-7457857D02*
X138571428Y-7457857D01*
X138571428Y-7457857D02*
X138714286Y-7529285D01*
X138714286Y-7529285D02*
X138785714Y-7600714D01*
X138785714Y-7600714D02*
X138857143Y-7743571D01*
X138857143Y-7743571D02*
X138857143Y-8100714D01*
X138857143Y-8100714D02*
X138785714Y-8243571D01*
X138785714Y-8243571D02*
X138714286Y-8315000D01*
X138714286Y-8315000D02*
X138571428Y-8386428D01*
X138571428Y-8386428D02*
X138142857Y-8386428D01*
X138142857Y-8386428D02*
X138000000Y-8315000D01*
X138000000Y-8315000D02*
X137928571Y-8243571D01*
X139499999Y-8243571D02*
X139571428Y-8315000D01*
X139571428Y-8315000D02*
X139499999Y-8386428D01*
X139499999Y-8386428D02*
X139428571Y-8315000D01*
X139428571Y-8315000D02*
X139499999Y-8243571D01*
X139499999Y-8243571D02*
X139499999Y-8386428D01*
X139499999Y-7457857D02*
X139571428Y-7529285D01*
X139571428Y-7529285D02*
X139499999Y-7600714D01*
X139499999Y-7600714D02*
X139428571Y-7529285D01*
X139428571Y-7529285D02*
X139499999Y-7457857D01*
X139499999Y-7457857D02*
X139499999Y-7600714D01*
X141357142Y-8386428D02*
X141357142Y-6886428D01*
X143214285Y-7815000D02*
X144357143Y-7815000D01*
X143785714Y-8386428D02*
X143785714Y-7243571D01*
X133357142Y-10816428D02*
X133357142Y-9316428D01*
X133357142Y-9316428D02*
X133928571Y-9316428D01*
X133928571Y-9316428D02*
X134071428Y-9387857D01*
X134071428Y-9387857D02*
X134142857Y-9459285D01*
X134142857Y-9459285D02*
X134214285Y-9602142D01*
X134214285Y-9602142D02*
X134214285Y-9816428D01*
X134214285Y-9816428D02*
X134142857Y-9959285D01*
X134142857Y-9959285D02*
X134071428Y-10030714D01*
X134071428Y-10030714D02*
X133928571Y-10102142D01*
X133928571Y-10102142D02*
X133357142Y-10102142D01*
X134857142Y-10816428D02*
X134857142Y-9816428D01*
X134857142Y-9316428D02*
X134785714Y-9387857D01*
X134785714Y-9387857D02*
X134857142Y-9459285D01*
X134857142Y-9459285D02*
X134928571Y-9387857D01*
X134928571Y-9387857D02*
X134857142Y-9316428D01*
X134857142Y-9316428D02*
X134857142Y-9459285D01*
X135571428Y-9816428D02*
X135571428Y-10816428D01*
X135571428Y-9959285D02*
X135642857Y-9887857D01*
X135642857Y-9887857D02*
X135785714Y-9816428D01*
X135785714Y-9816428D02*
X136000000Y-9816428D01*
X136000000Y-9816428D02*
X136142857Y-9887857D01*
X136142857Y-9887857D02*
X136214286Y-10030714D01*
X136214286Y-10030714D02*
X136214286Y-10816428D01*
X138714286Y-9816428D02*
X138714286Y-10816428D01*
X138357143Y-9245000D02*
X138000000Y-10316428D01*
X138000000Y-10316428D02*
X138928571Y-10316428D01*
X139499999Y-10673571D02*
X139571428Y-10745000D01*
X139571428Y-10745000D02*
X139499999Y-10816428D01*
X139499999Y-10816428D02*
X139428571Y-10745000D01*
X139428571Y-10745000D02*
X139499999Y-10673571D01*
X139499999Y-10673571D02*
X139499999Y-10816428D01*
X139499999Y-9887857D02*
X139571428Y-9959285D01*
X139571428Y-9959285D02*
X139499999Y-10030714D01*
X139499999Y-10030714D02*
X139428571Y-9959285D01*
X139428571Y-9959285D02*
X139499999Y-9887857D01*
X139499999Y-9887857D02*
X139499999Y-10030714D01*
X141142857Y-9316428D02*
X141642857Y-10816428D01*
X141642857Y-10816428D02*
X142142857Y-9316428D01*
X143785713Y-10245000D02*
X144928571Y-10245000D01*
X144357142Y-10816428D02*
X144357142Y-9673571D01*
D11*
X30137201Y-8120666D02*
X30112926Y-8217753D01*
X30084176Y-8316900D01*
X30078150Y-8336159D01*
X30200328Y-7611918D02*
X30195856Y-7716197D01*
X30187613Y-7816155D01*
X30180185Y-7880492D01*
X29867552Y-7119802D02*
X28995251Y-6886070D01*
X29533278Y-8948379D02*
X29564406Y-8852965D01*
X29594201Y-8770634D01*
X32405799Y-8770634D02*
X32441318Y-8869619D01*
X32466722Y-8948379D01*
X28228723Y-4228715D02*
G75*
G03*
X26975922Y-5204131I-565673J-565705D01*
G01*
X30010159Y-8530946D02*
X29972842Y-8627479D01*
X29940288Y-8709358D01*
X32239725Y-9356073D02*
X32229415Y-9253428D01*
X32219284Y-9193396D01*
X32466722Y-8948379D02*
X32493976Y-9046764D01*
X32513851Y-9136556D01*
X31808581Y-7311144D02*
X31818237Y-7209897D01*
X31831463Y-7104957D01*
X31848423Y-6996181D01*
X31852279Y-6973953D01*
X29763425Y-9531565D02*
X29776625Y-9632930D01*
X29795978Y-9728281D01*
X29795978Y-9728281D02*
X29823335Y-9829940D01*
X29856764Y-9931060D01*
X29864981Y-9953560D01*
X33004749Y-6886070D02*
X32132448Y-7119802D01*
X35024119Y-5204155D02*
G75*
G03*
X33771281Y-4228719I-687119J409755D01*
G01*
X29844815Y-8053505D02*
X29865897Y-7950678D01*
X29881731Y-7849171D01*
X29882638Y-7842211D01*
X29760275Y-9356073D02*
X29758958Y-9458177D01*
X29763425Y-9531565D01*
X32236575Y-9531565D02*
X32241560Y-9430770D01*
X32239725Y-9356073D01*
X31862799Y-8120666D02*
X31841606Y-8018848D01*
X31825191Y-7919797D01*
X31819815Y-7880492D01*
X30141110Y-10512159D02*
G75*
G03*
X31858890Y-10512159I858890J512160D01*
G01*
X30858580Y-9741420D02*
G75*
G03*
X31141420Y-9741420I141420J141422D01*
G01*
X29792138Y-8245621D02*
X29821673Y-8145541D01*
X29844815Y-8053505D01*
X32204022Y-9728281D02*
X32224398Y-9626780D01*
X32236575Y-9531565D01*
X32117362Y-7842211D02*
X32132922Y-7944072D01*
X32153752Y-8047227D01*
X32155185Y-8053505D01*
X29460753Y-9339141D02*
X29470241Y-9235867D01*
X29486149Y-9136556D01*
X32107632Y-7334989D02*
X32101202Y-7440462D01*
X32098943Y-7540773D01*
X32099591Y-7604944D01*
X32099591Y-7604944D02*
X32104034Y-7704902D01*
X32113123Y-7807023D01*
X32117362Y-7842211D01*
X29780716Y-9193396D02*
X29765433Y-9294017D01*
X29760275Y-9356073D01*
X29594201Y-8770634D02*
X29631767Y-8673314D01*
X29661672Y-8598122D01*
X29892368Y-7334989D02*
X29882126Y-7229991D01*
X29868595Y-7126845D01*
X29867552Y-7119802D01*
X32219284Y-9193396D02*
X32196518Y-9094615D01*
X32179664Y-9035541D01*
X32977178Y-5022823D02*
G75*
G03*
X29022822Y-5022823I-1977178J-3477177D01*
G01*
X30147721Y-6973953D02*
G75*
G03*
X30038823Y-6855111I-147721J-26047D01*
G01*
X31989841Y-8530946D02*
X31955175Y-8435876D01*
X31921850Y-8336159D01*
X29875102Y-8875966D02*
X29841005Y-8971239D01*
X29820336Y-9035541D01*
X30191419Y-7311144D02*
X30198122Y-7418420D01*
X30200941Y-7521574D01*
X30200328Y-7611918D01*
X32179664Y-9035541D02*
X32146929Y-8936361D01*
X32124898Y-8875966D01*
X30180185Y-7880492D02*
X30165104Y-7981279D01*
X30145153Y-8084861D01*
X30137201Y-8120666D01*
X29977729Y-10213231D02*
X30027848Y-10311327D01*
X30078829Y-10404689D01*
X30129291Y-10492239D01*
X30141109Y-10512159D01*
X30858579Y-9741421D02*
X30458579Y-9341421D01*
X29820336Y-9035541D02*
X29793538Y-9134016D01*
X29780716Y-9193396D01*
D12*
X1000000Y-28000000D02*
X149000000Y-28000000D01*
D11*
X33771281Y-4228719D02*
X32977178Y-5022822D01*
X29661672Y-8598122D02*
X29700120Y-8501237D01*
X29729452Y-8425099D01*
X30147721Y-6973953D02*
X30163848Y-7072734D01*
X30178176Y-7178809D01*
X30188886Y-7281149D01*
X30191419Y-7311144D01*
X31541421Y-9341421D02*
G75*
G03*
X31400000Y-9000000I-141421J141421D01*
G01*
X32539247Y-9339141D02*
X32540624Y-9368891D01*
X31921850Y-8336159D02*
X31892619Y-8237974D01*
X31866091Y-8134817D01*
X31862799Y-8120666D01*
X31961177Y-6855111D02*
X32927103Y-6596292D01*
X32135019Y-9953560D02*
X32167919Y-9858195D01*
X32195829Y-9761434D01*
X32204022Y-9728281D01*
X31961158Y-6855042D02*
G75*
G03*
X31852279Y-6973953I38942J-144958D01*
G01*
X32338328Y-8598122D02*
X32376698Y-8694849D01*
X32405799Y-8770634D01*
X32022271Y-10213231D02*
X32066400Y-10119776D01*
X32108036Y-10022895D01*
X32135019Y-9953560D01*
X32124898Y-8875966D02*
X32087103Y-8778202D01*
X32059712Y-8709358D01*
X32207862Y-8245621D02*
X32240223Y-8342143D01*
X32270548Y-8425099D01*
X32132448Y-7119802D02*
X32118654Y-7223259D01*
X32108150Y-7328573D01*
X32107632Y-7334989D01*
X32513851Y-9136556D02*
X32529759Y-9235867D01*
X32539247Y-9339141D01*
X30078150Y-8336159D02*
X30044825Y-8435876D01*
X30010159Y-8530946D01*
X29940288Y-8709358D02*
X29902656Y-8804227D01*
X29875102Y-8875966D01*
X29072891Y-6596315D02*
G75*
G03*
X28995251Y-6886069I-38791J-144885D01*
G01*
X30600000Y-9000001D02*
G75*
G03*
X30458579Y-9341421I0J-199999D01*
G01*
X29072897Y-6596292D02*
X30038823Y-6855111D01*
X31799672Y-7611918D02*
X31799293Y-7503118D01*
X31802800Y-7399227D01*
X31808581Y-7311144D01*
X31141421Y-9741421D02*
X31541421Y-9341421D01*
X29486149Y-9136556D02*
X29508989Y-9035014D01*
X29533278Y-8948379D01*
X31858891Y-10512159D02*
X31910336Y-10423852D01*
X31962374Y-10329676D01*
X32009207Y-10239516D01*
X32022271Y-10213231D01*
X26975921Y-5204131D02*
X29459376Y-9368891D01*
X32059712Y-8709358D02*
X32022773Y-8616340D01*
X31989841Y-8530946D01*
X29459376Y-9368891D02*
X29460753Y-9339141D01*
X29882638Y-7842211D02*
X29893207Y-7742003D01*
X29899476Y-7636255D01*
X29900409Y-7604944D01*
X32155185Y-8053505D02*
X32179972Y-8151544D01*
X32207862Y-8245621D01*
X32270548Y-8425099D02*
X32308379Y-8522834D01*
X32338328Y-8598122D01*
X32540624Y-9368891D02*
X35024079Y-5204131D01*
X31819815Y-7880492D02*
X31808514Y-7775018D01*
X31801803Y-7673283D01*
X31799672Y-7611918D01*
X29900409Y-7604944D02*
X29900600Y-7499582D01*
X29896644Y-7397161D01*
X29892368Y-7334989D01*
X29022822Y-5022822D02*
X28228719Y-4228719D01*
X33004755Y-6886092D02*
G75*
G03*
X32927103Y-6596293I-38855J144892D01*
G01*
X29864981Y-9953560D02*
X29901755Y-10046632D01*
X29945056Y-10144814D01*
X29977729Y-10213231D01*
X29729452Y-8425099D02*
X29763706Y-8330941D01*
X29792138Y-8245621D01*
X30600000Y-9000000D02*
X31400000Y-9000000D01*
D12*
X22523809Y-12425238D02*
X23666666Y-12425238D01*
X23095237Y-14425238D02*
X23095237Y-12425238D01*
X24047619Y-12425238D02*
X25190476Y-12425238D01*
X24619047Y-14425238D02*
X24619047Y-12425238D01*
X25666667Y-12425238D02*
X26142857Y-14425238D01*
X26142857Y-14425238D02*
X26523810Y-12996666D01*
X26523810Y-12996666D02*
X26904762Y-14425238D01*
X26904762Y-14425238D02*
X27380953Y-12425238D01*
X28142857Y-13663333D02*
X29666667Y-13663333D01*
X30523809Y-13853809D02*
X31476190Y-13853809D01*
X30333333Y-14425238D02*
X30999999Y-12425238D01*
X30999999Y-12425238D02*
X31666666Y-14425238D01*
X32047619Y-12425238D02*
X33190476Y-12425238D01*
X32619047Y-14425238D02*
X32619047Y-12425238D01*
X33857143Y-13663333D02*
X35380953Y-13663333D01*
X36428571Y-14425238D02*
X36809523Y-14425238D01*
X36809523Y-14425238D02*
X37000000Y-14330000D01*
X37000000Y-14330000D02*
X37095238Y-14234761D01*
X37095238Y-14234761D02*
X37285714Y-13949047D01*
X37285714Y-13949047D02*
X37380952Y-13568095D01*
X37380952Y-13568095D02*
X37380952Y-12806190D01*
X37380952Y-12806190D02*
X37285714Y-12615714D01*
X37285714Y-12615714D02*
X37190476Y-12520476D01*
X37190476Y-12520476D02*
X37000000Y-12425238D01*
X37000000Y-12425238D02*
X36619047Y-12425238D01*
X36619047Y-12425238D02*
X36428571Y-12520476D01*
X36428571Y-12520476D02*
X36333333Y-12615714D01*
X36333333Y-12615714D02*
X36238095Y-12806190D01*
X36238095Y-12806190D02*
X36238095Y-13282380D01*
X36238095Y-13282380D02*
X36333333Y-13472857D01*
X36333333Y-13472857D02*
X36428571Y-13568095D01*
X36428571Y-13568095D02*
X36619047Y-13663333D01*
X36619047Y-13663333D02*
X37000000Y-13663333D01*
X37000000Y-13663333D02*
X37190476Y-13568095D01*
X37190476Y-13568095D02*
X37285714Y-13472857D01*
X37285714Y-13472857D02*
X37380952Y-13282380D01*
X38619047Y-12425238D02*
X38809524Y-12425238D01*
X38809524Y-12425238D02*
X39000000Y-12520476D01*
X39000000Y-12520476D02*
X39095238Y-12615714D01*
X39095238Y-12615714D02*
X39190476Y-12806190D01*
X39190476Y-12806190D02*
X39285714Y-13187142D01*
X39285714Y-13187142D02*
X39285714Y-13663333D01*
X39285714Y-13663333D02*
X39190476Y-14044285D01*
X39190476Y-14044285D02*
X39095238Y-14234761D01*
X39095238Y-14234761D02*
X39000000Y-14330000D01*
X39000000Y-14330000D02*
X38809524Y-14425238D01*
X38809524Y-14425238D02*
X38619047Y-14425238D01*
X38619047Y-14425238D02*
X38428571Y-14330000D01*
X38428571Y-14330000D02*
X38333333Y-14234761D01*
X38333333Y-14234761D02*
X38238095Y-14044285D01*
X38238095Y-14044285D02*
X38142857Y-13663333D01*
X38142857Y-13663333D02*
X38142857Y-13187142D01*
X38142857Y-13187142D02*
X38238095Y-12806190D01*
X38238095Y-12806190D02*
X38333333Y-12615714D01*
X38333333Y-12615714D02*
X38428571Y-12520476D01*
X38428571Y-12520476D02*
X38619047Y-12425238D01*
D11*
%TO.C,J1*%
X100333333Y-20537380D02*
X100333333Y-19823095D01*
X100333333Y-19823095D02*
X100380952Y-19680238D01*
X100380952Y-19680238D02*
X100476190Y-19585000D01*
X100476190Y-19585000D02*
X100619047Y-19537380D01*
X100619047Y-19537380D02*
X100714285Y-19537380D01*
X99333333Y-19537380D02*
X99904761Y-19537380D01*
X99619047Y-19537380D02*
X99619047Y-20537380D01*
X99619047Y-20537380D02*
X99714285Y-20394523D01*
X99714285Y-20394523D02*
X99809523Y-20299285D01*
X99809523Y-20299285D02*
X99904761Y-20251666D01*
X118950000Y-16000000D02*
X118950000Y-12000000D01*
X116700000Y-18500000D02*
X83450000Y-18500000D01*
X115400000Y-9750000D02*
X116700000Y-9750000D01*
X115400000Y11700000D02*
X115400000Y-9750000D01*
X115400000Y11700000D02*
X84750000Y11700000D01*
X106000000Y11700000D02*
X106000000Y-9750000D01*
X94000000Y11700000D02*
X94000000Y-9750000D01*
X84750000Y-9775000D02*
X83450000Y-9775000D01*
X84750000Y11675000D02*
X84750000Y-9775000D01*
X81200000Y-16025000D02*
X81200000Y-12025000D01*
X116700000Y-18500000D02*
G75*
G03*
X118950000Y-16000000I-124999J2374999D01*
G01*
X118950000Y-12000000D02*
G75*
G03*
X116700000Y-9750000I-2250001J-1D01*
G01*
X81200000Y-16025000D02*
G75*
G03*
X83450000Y-18525000I2375000J-125000D01*
G01*
X83450000Y-9775000D02*
G75*
G03*
X81200000Y-12025000I0J-2250000D01*
G01*
%TD*%
M02*
